<svg class="svg-inline--fa fa-lock inline-block !w-5 !h-5 sm:!w-6 sm:!h-6" aria-hidden="true" focusable="false" data-prefix="fal" data-icon="lock" role="img" xmlns="http://www.w3.org/2000/svg" viewBox="0 0 448 512" data-fa-i2svg="" xmlns:xlink="http://www.w3.org/1999/xlink"><path fill="white" d="M128 128v64H320V128c0-53-43-96-96-96s-96 43-96 96zM96 192V128C96 57.3 153.3 0 224 0s128 57.3 128 128v64h16c44.2 0 80 35.8 80 80V432c0 44.2-35.8 80-80 80H80c-44.2 0-80-35.8-80-80V272c0-44.2 35.8-80 80-80H96zM32 272V432c0 26.5 21.5 48 48 48H368c26.5 0 48-21.5 48-48V272c0-26.5-21.5-48-48-48H80c-26.5 0-48 21.5-48 48z"></path></svg>