<svg class="h-6 transition-colors" fill="white" space="preserve" version="1.1" viewBox="274 903 1500 242" xmlns="http://www.w3.org/2000/svg" x="0" y="0" xmlns:xlink="http://www.w3.org/1999/xlink"><path d="M685.5 1031.8H702c0 17.9 12.6 27.5 32.6 27.5 18.9 0 30.6-8.8 30.6-23.2 0-37.1-76-6.6-76-56.3 0-23.7 17.9-37.1 44.5-37.1 29.6 0 47.5 14.9 47.5 38.2h-15.9c0-17.9-18.2-23.5-32.3-23.5-14.9 0-27 7.8-27 21.2 0 33.9 76 3.8 76 56.6 0 26-18.7 38.9-45.7 38.9-30.6-.1-50.8-16-50.8-42.3zM907.9 1072H892v-26.5c-6.6 19.2-22.7 28.6-43 28.6-28.8 0-47.5-20.5-47.5-52v-77.3h15.9v75.3c0 23.7 13.4 39.4 33.9 39.4 23.7 0 40.7-19.2 40.7-46.2v-68.5h15.9V1072zM933.1 944.7H949v23c7.8-14.9 25.5-25 44.2-25 40.4 0 61.9 29.3 61.9 65.7 0 36.4-21.5 65.7-61.9 65.7-18.7 0-36.4-10.1-44.2-25v74.5h-15.9V944.7zm105.1 63.6c0-30.8-17.9-51-45.5-51-27.5 0-45.5 20.2-45.5 51s17.9 51 45.5 51c27.6.1 45.5-20.2 45.5-51zM1192.9 1031.8c-4 25.5-26 42.2-57.6 42.2-36.1 0-62.4-28.8-62.4-66.7 0-38.7 24.3-64.7 60.1-64.7 34.9 0 58.4 23.7 58.4 58.9 0 2.3-.3 6.6-.5 8.3H1089c1 28.6 20.7 49.5 46.2 49.5 22.5 0 36.6-10.1 40.9-27.5h16.8zM1090 995.2h84.6c-1.8-23.5-17.4-37.9-41.7-37.9-23.1 0-38.8 14.1-42.9 37.9zM1264.4 959.3c-28 0-35.4 25.8-35.4 58.4v54.3h-15.9V944.7h15.9v27c5.1-17.7 15.7-27 35.4-27h16.7v14.7h-16.7zM1331.8 903v41.7h40.4v14.7h-40.4v74.5c0 14.7 8.3 23.5 21.2 23.5h19.2v14.7h-18.9c-23 0-37.4-14.7-37.4-38.2v-74.5h-27.3v-14.7h27.3V903h15.9zM1490.3 989.9v82.1h-15.9v-23.2c-7.6 15.4-25.3 25.3-45.7 25.3-27.3 0-44.7-14.9-44.7-38.4 0-24.3 20.2-39.7 51.8-39.7h30.8c5.6 0 7.8-2.3 7.8-6.1 0-19.2-13.6-32.6-37.4-32.6-19.7 0-36.4 12.4-37.4 27.3h-15.9c2.5-24.5 26.8-41.9 53.3-41.9 33.3-.1 53.3 18.9 53.3 47.2zm-16 23.2v-3.8h-38.7c-21.2 0-34.9 10.1-34.9 26.3 0 14.4 11.4 23.7 29.1 23.7 28.1.1 44.5-16.9 44.5-46.2zM1514.3 944.7h15.9v23c7.8-14.9 25.5-25 44.2-25 40.4 0 61.9 29.3 61.9 65.7 0 36.4-21.5 65.7-61.9 65.7-18.7 0-36.4-10.1-44.2-25v74.5h-15.9V944.7zm105.1 63.6c0-30.8-17.9-51-45.5-51-27.5 0-45.5 20.2-45.5 51s17.9 51 45.5 51c27.5.1 45.5-20.2 45.5-51zM1774 1031.8c-4 25.5-26 42.2-57.6 42.2-36.1 0-62.4-28.8-62.4-66.7 0-38.7 24.3-64.7 60.1-64.7 34.9 0 58.4 23.7 58.4 58.9 0 2.3-.3 6.6-.5 8.3h-101.8c1 28.6 20.7 49.5 46.2 49.5 22.5 0 36.6-10.1 40.9-27.5h16.7zm-102.8-36.6h84.6c-1.8-23.5-17.4-37.9-41.7-37.9-23.2 0-38.9 14.1-42.9 37.9zM636.7 903H478.8l-43.4 57.9c-6.5 8.7-6.5 20.7 0 29.4l37.3 49.8c2.5 3.4.1 8.2-4.1 8.2H364.8c-11.5 0-22.2 5.4-29.1 14.6L274 1145h181.2l50.8-67.8c2.3-3.1 5.9-4.9 9.7-4.9h102.8c10 0 18.2-8.1 18.2-18.2 0-3.9-1.3-7.7-3.6-10.9l-45.3-60.5c-3.2-4.3-3.2-10.2 0-14.6l48.9-65.1z"></path></svg>