<svg class="svg-inline--fa fa-supertape inline-block !w-16 !h-16 shrink-0" aria-hidden="true" focusable="false" data-prefix="fak" data-icon="supertape" role="img" xmlns="http://www.w3.org/2000/svg" viewBox="0 0 640 512" data-fa-i2svg="" style="width: 1.25em;" xmlns:xlink="http://www.w3.org/1999/xlink"><path fill="currentColor" d="m639 42.9H361L284.5 145c-11.5 15.4-11.5 36.5 0 51.8l65.6 87.7c4.5 5.8 0 14.4-7 14.4H160.3c-20.2 0-39 9.6-51.2 25.6L.3 469.1h319L409 349.8c4.2-5.4 10.2-8.6 17-8.6h180.8c17.6 0 32-14.4 32-32h0c0-7-2.2-13.8-6.4-19.2l-79.7-106.6c-5.8-7.7-5.8-17.9 0-25.6l86.1-114.9z"></path></svg>