<?xml version="1.0" encoding="UTF-8"?>
<svg width="660px" height="300px" viewBox="0 0 660 300" version="1.1" xmlns="http://www.w3.org/2000/svg" xmlns:xlink="http://www.w3.org/1999/xlink">
    <title>illo-sync-dark</title>
    <g id="illo-sync-dark" stroke="none" stroke-width="1" fill="none" fill-rule="evenodd">
        <g id="Group-Copy" transform="translate(20.000000, 7.000000)">
            <g id="Group-21" transform="translate(131.000000, 87.000000)">
                <g id="Group-4" stroke="#FFFFFF" stroke-width="1.5">
                    <path d="M179,0 L350,0 C354.418278,-2.58798134e-15 358,3.581722 358,8 L358,206 L358,206" id="Rectangle"></path>
                    <path d="M0,0 L171,0 C175.418278,-2.58798134e-15 179,3.581722 179,8 L179,206 L179,206" id="Rectangle" transform="translate(89.500000, 103.000000) scale(-1, 1) translate(-89.500000, -103.000000) "></path>
                </g>
                <g id="Group-17" transform="translate(28.000000, 54.000000)" stroke="#FFFFFF" stroke-width="1.5">
                    <rect id="Rectangle-Copy-4" x="0.75" y="0.75" width="91.4784173" height="91.753012" rx="4"></rect>
                    <path d="M4,106 L88.9784173,106 C91.1875563,106 92.9784173,107.790861 92.9784173,110 L92.9784173,167 C92.9784173,169.209139 91.1875563,171 88.9784173,171 L4,171 C1.790861,171 1.15871992e-15,169.209139 0,167 L0,110 C-2.705415e-16,107.790861 1.790861,106 4,106 Z" id="Rectangle-Copy-7"></path>
                    <rect id="Rectangle-Copy-5" x="105.048561" y="0.990963855" width="91.4784173" height="91.753012" rx="4"></rect>
                    <path d="M108.600719,106 L193.579137,106 C195.788276,106 197.579137,107.790861 197.579137,110 L197.579137,167 C197.579137,169.209139 195.788276,171 193.579137,171 L108.600719,171 C106.39158,171 104.600719,169.209139 104.600719,167 L104.600719,110 C104.600719,107.790861 106.39158,106 108.600719,106 Z" id="Rectangle-Copy-8"></path>
                    <rect id="Rectangle-Copy-6" x="209.951439" y="0.75" width="91.4784173" height="91.753012" rx="4"></rect>
                    <path d="M213.201439,106 L298.179856,106 C300.388995,106 302.179856,107.790861 302.179856,110 L302.179856,167 C302.179856,169.209139 300.388995,171 298.179856,171 L213.201439,171 C210.9923,171 209.201439,169.209139 209.201439,167 L209.201439,110 C209.201439,107.790861 210.9923,106 213.201439,106 Z" id="Rectangle-Copy-9"></path>
                </g>
                <path d="M11.0778388,10 L33.4581325,10 C34.0534064,10 34.5359712,10.4825648 34.5359712,11.0778388 C34.5359712,11.6731127 34.0534064,12.1556775 33.4581325,12.1556775 L11.0778388,12.1556775 C10.4825648,12.1556775 10,11.6731127 10,11.0778388 C10,10.4825648 10.4825648,10 11.0778388,10 Z" id="Rectangle" fill="#FFFFFF"></path>
                <path d="M324.502299,9.65408896 L346.882593,9.65408896 C347.477867,9.65408896 347.960432,10.1366538 347.960432,10.7319277 C347.960432,11.3272016 347.477867,11.8097665 346.882593,11.8097665 L324.502299,11.8097665 C323.907025,11.8097665 323.42446,11.3272016 323.42446,10.7319277 C323.42446,10.1366538 323.907025,9.65408896 324.502299,9.65408896 Z" id="Rectangle-Copy" fill="#FFFFFF"></path>
                <path d="M297.383594,9.65408896 L319.763888,9.65408896 C320.359162,9.65408896 320.841727,10.1366538 320.841727,10.7319277 C320.841727,11.3272016 320.359162,11.8097665 319.763888,11.8097665 L297.383594,11.8097665 C296.78832,11.8097665 296.305755,11.3272016 296.305755,10.7319277 C296.305755,10.1366538 296.78832,9.65408896 297.383594,9.65408896 Z" id="Rectangle-Copy-2" fill="#FFFFFF"></path>
                <path d="M270.077839,10 L292.458132,10 C293.053406,10 293.535971,10.4825648 293.535971,11.0778388 C293.535971,11.6731127 293.053406,12.1556775 292.458132,12.1556775 L270.077839,12.1556775 C269.482565,12.1556775 269,11.6731127 269,11.0778388 C269,10.4825648 269.482565,10 270.077839,10 Z" id="Rectangle-Copy-10" fill="#FFFFFF"></path>
            </g>
            <g id="Group-6">
                <line x1="217" y1="26" x2="310" y2="189" id="Line-7" stroke="#7B44FC" stroke-width="2" stroke-linecap="round" stroke-dasharray="0,6"></line>
                <line x1="402" y1="26" x2="310" y2="189" id="Line-6" stroke="#7B44FC" stroke-width="2" stroke-linecap="round" stroke-dasharray="0,6"></line>
                <line x1="594" y1="231" x2="310" y2="189" id="Line-4" stroke="#7B44FC" stroke-width="2" stroke-linecap="round" stroke-dasharray="0,6"></line>
                <line x1="578" y1="87" x2="310" y2="189" id="Line-5" stroke="#7B44FC" stroke-width="2" stroke-linecap="round" stroke-dasharray="0,6"></line>
                <line x1="26" y1="231" x2="310" y2="190" id="Line-3" stroke="#7B44FC" stroke-width="2" stroke-linecap="round" stroke-dasharray="0,6"></line>
                <line x1="42" y1="87" x2="310" y2="189" id="Line-2" stroke="#7B44FC" stroke-width="2" stroke-linecap="round" stroke-dasharray="0,6"></line>
                <circle id="Oval-Copy-6" fill="#7B44FC" cx="310" cy="190" r="26"></circle>
                <path d="M301.61992,187.773884 C302.508263,184.113281 305.809067,181.392857 309.745645,181.392857 C312.841782,181.392857 315.541648,183.072991 316.987383,185.571429 L314.622823,185.571429 C314.239616,185.571429 313.926083,185.884821 313.926083,186.267857 C313.926083,186.650893 314.239616,186.964286 314.622823,186.964286 L318.137003,186.964286 L318.80326,186.964286 C319.186467,186.964286 319.5,186.650893 319.5,186.267857 L319.5,182.089286 C319.5,181.70625 319.186467,181.392857 318.80326,181.392857 C318.420054,181.392857 318.106521,181.70625 318.106521,182.089286 L318.106521,184.727009 C316.399509,181.893415 313.294663,180 309.745645,180 C305.112327,180 301.232358,183.229688 300.239504,187.55625 C300.143703,187.974107 300.474654,188.357143 300.905762,188.357143 C301.249777,188.357143 301.541536,188.10904 301.624274,187.773884 L301.61992,187.773884 Z M317.871371,191.730469 C316.983028,195.386719 313.682224,198.107143 309.745645,198.107143 C306.649509,198.107143 303.949643,196.427009 302.503908,193.928571 L304.877177,193.928571 C305.260384,193.928571 305.573917,193.615179 305.573917,193.232143 C305.573917,192.849107 305.260384,192.535714 304.877177,192.535714 L301.354288,192.535714 L300.69674,192.535714 C300.313533,192.535714 300,192.849107 300,193.232143 L300,197.410714 C300,197.79375 300.313533,198.107143 300.69674,198.107143 C301.079946,198.107143 301.393479,197.79375 301.393479,197.410714 L301.393479,194.790402 C303.100491,197.610937 306.205337,199.5 309.745645,199.5 C314.378964,199.5 318.258933,196.270312 319.251787,191.94375 C319.347588,191.525893 319.016637,191.142857 318.585529,191.142857 C318.241514,191.142857 317.949754,191.39096 317.867017,191.726116 L317.871371,191.730469 Z" id="Shape" stroke="#FFFFFF" stroke-width="0.25" fill="#FFFFFF" fill-rule="nonzero"></path>
                <circle id="Oval" stroke="#FFFFFF" stroke-width="1.5" fill="#000000" cx="42" cy="87" r="25.25"></circle>
                <path d="M34.3111111,81.1333333 C33.6719444,81.1333333 33.1555556,81.6397917 33.1555556,82.2666667 L33.1555556,91.3333333 C33.1555556,91.9602083 33.6719444,92.4666667 34.3111111,92.4666667 L43.5555556,92.4666667 C44.1947222,92.4666667 44.7111111,91.9602083 44.7111111,91.3333333 L44.7111111,82.2666667 C44.7111111,81.6397917 44.1947222,81.1333333 43.5555556,81.1333333 L34.3111111,81.1333333 Z M32,82.2666667 C32,81.0164583 33.0363889,80 34.3111111,80 L43.5555556,80 C44.8302778,80 45.8666667,81.0164583 45.8666667,82.2666667 L45.8666667,83.9383333 L45.8666667,89.6616667 L45.8666667,91.3333333 C45.8666667,92.5835417 44.8302778,93.6 43.5555556,93.6 L34.3111111,93.6 C33.0363889,93.6 32,92.5835417 32,91.3333333 L32,82.2666667 Z M50.7561111,92.3002083 L47.0222222,90.285 L47.0222222,88.9922917 L51.3122222,91.3085417 C51.3447222,91.32625 51.3808333,91.336875 51.4205556,91.336875 C51.5433333,91.336875 51.6444444,91.2377083 51.6444444,91.1172917 L51.6444444,82.48625 C51.6444444,82.3658333 51.5433333,82.2666667 51.4205556,82.2666667 C51.3844444,82.2666667 51.3447222,82.2772917 51.3122222,82.295 L47.0222222,84.6077083 L47.0222222,83.315 L50.7561111,81.2997917 C50.9583333,81.19 51.1894444,81.1333333 51.4205556,81.1333333 C52.1825,81.1333333 52.8,81.7389583 52.8,82.48625 L52.8,91.11375 C52.8,91.8610417 52.1825,92.4666667 51.4205556,92.4666667 C51.1894444,92.4666667 50.9583333,92.41 50.7561111,92.3002083 Z" id="Shape" stroke="#FFFFFF" stroke-width="0.25" fill="#FFFFFF" fill-rule="nonzero"></path>
                <circle id="Oval-Copy-4" stroke="#FFFFFF" stroke-width="1.5" fill="#000000" cx="578" cy="87" r="25.25"></circle>
                <path d="M577.414286,79.700535 C577.485714,79.3934146 577.292857,79.0862943 576.985714,79.0148709 C576.678571,78.9434476 576.371429,79.1362906 576.3,79.443411 L575.478571,83.0002931 L571.714286,83.0002931 C571.4,83.0002931 571.142857,83.2574171 571.142857,83.5716798 C571.142857,83.8859425 571.4,84.1430665 571.714286,84.1430665 L575.214286,84.1430665 L573.896429,89.8569335 L570.571429,89.8569335 C570.257143,89.8569335 570,90.1140575 570,90.4283202 C570,90.7425829 570.257143,90.9997069 570.571429,90.9997069 L573.632143,90.9997069 L572.871429,94.299465 C572.8,94.6065854 572.992857,94.9137057 573.3,94.9851291 C573.607143,95.0565524 573.914286,94.8637094 573.985714,94.556589 L574.807143,90.9997069 L579.346429,90.9997069 L578.585714,94.299465 C578.514286,94.6065854 578.707143,94.9137057 579.014286,94.9851291 C579.321429,95.0565524 579.628571,94.8637094 579.7,94.556589 L580.521429,90.9997069 L584.285714,90.9997069 C584.6,90.9997069 584.857143,90.7425829 584.857143,90.4283202 C584.857143,90.1140575 584.6,89.8569335 584.285714,89.8569335 L580.785714,89.8569335 L582.103571,84.1430665 L585.428571,84.1430665 C585.742857,84.1430665 586,83.8859425 586,83.5716798 C586,83.2574171 585.742857,83.0002931 585.428571,83.0002931 L582.367857,83.0002931 L583.128571,79.700535 C583.2,79.3934146 583.007143,79.0862943 582.7,79.0148709 C582.392857,78.9434476 582.085714,79.1362906 582.014286,79.443411 L581.192857,83.0002931 L576.653571,83.0002931 L577.414286,79.700535 Z M576.389286,84.1430665 L580.928571,84.1430665 L579.610714,89.8569335 L575.071429,89.8569335 L576.389286,84.1430665 Z" id="Shape" stroke="#FFFFFF" stroke-width="0.25" fill="#FFFFFF" fill-rule="nonzero"></path>
                <circle id="Oval-Copy-2" stroke="#FFFFFF" stroke-width="1.5" fill="#000000" cx="217" cy="26" r="25.25"></circle>
                <path d="M213.586403,16.8 C212.613242,16.8 211.6717,17.145 210.916359,17.7739062 L208.137404,20.1026563 L206.612668,21.3784375 C206.131357,21.7809375 206.061093,22.506875 206.454573,22.995625 L208.945444,26.1114063 C209.338924,26.60375 210.048594,26.675625 210.526391,26.273125 L211.78061,25.22375 L211.78061,33.1875 C211.78061,34.2979687 212.662427,35.2 213.748011,35.2 L221.055502,35.2 C222.141086,35.2 223.022903,34.2979687 223.022903,33.1875 L223.022903,25.22375 L224.273609,26.2695312 C224.754919,26.6720312 225.461076,26.6001562 225.854556,26.1078125 L228.345427,22.9920313 C228.738907,22.4996875 228.668643,21.7773438 228.187332,21.3748438 L227.832497,21.8204687 L228.187332,21.3748438 L226.666109,20.1026563 L223.887155,17.7739062 C223.131813,17.145 222.190271,16.8 221.21711,16.8 L220.995777,16.8 C220.950106,16.8 220.907947,16.8035938 220.865788,16.8071875 C220.837683,16.8035938 220.806064,16.8 220.774445,16.8 L214.029069,16.8 C213.99745,16.8 213.969344,16.8035938 213.937725,16.8071875 C213.895566,16.8035938 213.853408,16.8 213.807736,16.8 L213.586403,16.8 Z M215.016282,17.95 L219.787231,17.95 C219.439422,18.95625 218.501393,19.675 217.401757,19.675 C216.30212,19.675 215.364091,18.95625 215.016282,17.95 Z M211.629542,18.6651562 C212.181117,18.2015625 212.87322,17.95 213.586403,17.95 L213.807736,17.95 L213.807736,17.95 C213.807736,17.95 213.814762,17.9535937 213.821789,17.9607812 C213.839355,17.9751562 213.856921,18.0039062 213.867461,18.0398437 C214.278507,19.6426562 215.704873,20.825 217.401757,20.825 C219.09864,20.825 220.525006,19.6426562 220.936053,18.0398437 C220.946592,18.0039062 220.964158,17.9751562 220.981724,17.9607812 C220.988751,17.9535937 220.995777,17.9535937 220.995777,17.95 L220.995777,17.95 L221.21711,17.95 C221.930293,17.95 222.622397,18.2015625 223.173972,18.6651562 L225.956439,20.9939062 L227.477662,22.2696875 L224.986792,25.3854687 L223.465569,24.1096875 L222.819137,23.5670312 C222.650502,23.426875 222.41863,23.398125 222.22189,23.4915625 C222.02515,23.585 221.902187,23.7898437 221.902187,24.0126562 L221.902187,33.1875 C221.902187,33.6654687 221.526273,34.05 221.059015,34.05 L213.748011,34.05 C213.280753,34.05 212.904839,33.6654687 212.904839,33.1875 L212.904839,24.0126562 C212.904839,23.7898437 212.778363,23.5885937 212.585136,23.4915625 C212.39191,23.3945312 212.156524,23.426875 211.98789,23.5670312 L211.341458,24.1096875 L209.820235,25.3854687 L207.325851,22.2660937 L208.847074,20.9903125 L211.629542,18.6615625 L211.629542,18.6651562 Z" id="Shape" stroke="#FFFFFF" stroke-width="0.25" fill="#FFFFFF" fill-rule="nonzero"></path>
                <circle id="Oval-Copy-3" stroke="#FFFFFF" stroke-width="1.5" fill="#000000" cx="402" cy="26" r="25.25"></circle>
                <path d="M408.457143,17.3714286 C409.215714,17.3714286 409.828571,17.9842857 409.828571,18.7428571 L409.828571,32.4571429 C409.828571,33.2157143 409.215714,33.8285714 408.457143,33.8285714 L394.742857,33.8285714 C393.984286,33.8285714 393.371429,33.2157143 393.371429,32.4571429 L393.371429,18.7428571 C393.371429,17.9842857 393.984286,17.3714286 394.742857,17.3714286 L408.457143,17.3714286 Z M394.742857,16 C393.23,16 392,17.23 392,18.7428571 L392,32.4571429 C392,33.97 393.23,35.2 394.742857,35.2 L408.457143,35.2 C409.97,35.2 411.2,33.97 411.2,32.4571429 L411.2,18.7428571 C411.2,17.23 409.97,16 408.457143,16 L394.742857,16 Z M401.6,20.1142857 C404.629676,20.1142857 407.085714,22.5703237 407.085714,25.6 C407.085714,28.6296763 404.629676,31.0857143 401.6,31.0857143 C398.570324,31.0857143 396.114286,28.6296763 396.114286,25.6 C396.114286,22.5703237 398.570324,20.1142857 401.6,20.1142857 Z M401.6,32.4571429 C405.387095,32.4571429 408.457143,29.3870954 408.457143,25.6 C408.457143,21.8129046 405.387095,18.7428571 401.6,18.7428571 C397.812905,18.7428571 394.742857,21.8129046 394.742857,25.6 C394.742857,29.3870954 397.812905,32.4571429 401.6,32.4571429 Z M401.6,26.6285714 C402.168064,26.6285714 402.628571,26.1680643 402.628571,25.6 C402.628571,25.0319357 402.168064,24.5714286 401.6,24.5714286 C401.031936,24.5714286 400.571429,25.0319357 400.571429,25.6 C400.571429,26.1680643 401.031936,26.6285714 401.6,26.6285714 L401.6,26.6285714 Z" id="Shape" stroke="#FFFFFF" stroke-width="0.1" fill="#FFFFFF" fill-rule="nonzero"></path>
                <circle id="Oval-Copy-5" stroke="#FFFFFF" stroke-width="1.5" fill="#000000" cx="594" cy="231" r="25.25"></circle>
                <path d="M586.56,223.4 C583.820375,223.4 581.6,225.668125 581.6,228.466667 C581.6,231.265208 583.820375,233.533333 586.56,233.533333 L587.8,233.533333 C588.141,233.533333 588.42,233.248333 588.42,232.9 C588.42,232.551667 588.141,232.266667 587.8,232.266667 L586.56,232.266667 C584.50625,232.266667 582.84,230.564583 582.84,228.466667 C582.84,226.36875 584.50625,224.666667 586.56,224.666667 L593.383875,224.666667 C595.43375,224.666667 597.1,226.364792 597.1,228.462708 C597.1,230.45375 595.592625,232.104375 593.65125,232.246875 L593.337375,232.270625 C592.996375,232.294375 592.740625,232.599167 592.763875,232.9475 C592.787125,233.295833 593.0855,233.557083 593.4265,233.533333 L593.740375,233.509583 C596.33275,233.319583 598.34,231.114792 598.34,228.462708 C598.34,225.664167 596.1235,223.4 593.383875,223.4 L586.56,223.4 Z M601.44,238.6 C604.179625,238.6 606.4,236.331875 606.4,233.533333 C606.4,230.734792 604.179625,228.466667 601.44,228.466667 L600.2,228.466667 C599.859,228.466667 599.58,228.751667 599.58,229.1 C599.58,229.448333 599.859,229.733333 600.2,229.733333 L601.44,229.733333 C603.49375,229.733333 605.16,231.435417 605.16,233.533333 C605.16,235.63125 603.49375,237.333333 601.44,237.333333 L594.616125,237.333333 C592.56625,237.333333 590.9,235.635208 590.9,233.537292 C590.9,231.54625 592.407375,229.895625 594.34875,229.753125 L594.662625,229.729375 C595.003625,229.705625 595.259375,229.400833 595.236125,229.0525 C595.212875,228.704167 594.9145,228.442917 594.5735,228.466667 L594.259625,228.490417 C591.66725,228.680417 589.66,230.885208 589.66,233.537292 C589.66,236.335833 591.8765,238.6 594.616125,238.6 L601.44,238.6 Z" id="Shape" stroke="#FFFFFF" stroke-width="0.25" fill="#FFFFFF" fill-rule="nonzero"></path>
                <circle id="Oval-Copy" stroke="#FFFFFF" stroke-width="1.5" fill="#000000" cx="26" cy="231" r="25.25"></circle>
                <path d="M18.3111111,224 C17.0363889,224 16,225.016458 16,226.266667 L16,228.604167 C16,228.862708 16.1769444,229.089375 16.4333333,229.153125 C17.1808333,229.340833 17.7333333,230.006667 17.7333333,230.8 C17.7333333,231.593333 17.1808333,232.259167 16.4333333,232.446875 C16.1769444,232.510625 16,232.737292 16,232.995833 L16,235.333333 C16,236.583542 17.0363889,237.6 18.3111111,237.6 L34.4888889,237.6 C35.7636111,237.6 36.8,236.583542 36.8,235.333333 L36.8,232.995833 C36.8,232.737292 36.6230556,232.510625 36.3666667,232.446875 C35.6191667,232.259167 35.0666667,231.593333 35.0666667,230.8 C35.0666667,230.006667 35.6191667,229.340833 36.3666667,229.153125 C36.6230556,229.089375 36.8,228.862708 36.8,228.604167 L36.8,226.266667 C36.8,225.016458 35.7636111,224 34.4888889,224 L18.3111111,224 Z M17.1555556,226.266667 C17.1555556,225.639792 17.6719444,225.133333 18.3111111,225.133333 L34.4888889,225.133333 C35.1280556,225.133333 35.6444444,225.639792 35.6444444,226.266667 L35.6444444,228.203958 C34.6261111,228.639583 33.9111111,229.638333 33.9111111,230.8 C33.9111111,231.961667 34.6261111,232.960417 35.6444444,233.396042 L35.6444444,235.333333 C35.6444444,235.960208 35.1280556,236.466667 34.4888889,236.466667 L18.3111111,236.466667 C17.6719444,236.466667 17.1555556,235.960208 17.1555556,235.333333 L17.1555556,233.396042 C18.1738889,232.960417 18.8888889,231.961667 18.8888889,230.8 C18.8888889,229.638333 18.1738889,228.639583 17.1555556,228.203958 L17.1555556,226.266667 Z M21.7777778,228.533333 L31.0222222,228.533333 L31.0222222,233.066667 L21.7777778,233.066667 L21.7777778,228.533333 Z M20.6222222,228.533333 L20.6222222,233.066667 C20.6222222,233.693542 21.1386111,234.2 21.7777778,234.2 L31.0222222,234.2 C31.6613889,234.2 32.1777778,233.693542 32.1777778,233.066667 L32.1777778,228.533333 C32.1777778,227.906458 31.6613889,227.4 31.0222222,227.4 L21.7777778,227.4 C21.1386111,227.4 20.6222222,227.906458 20.6222222,228.533333 Z" id="Shape" stroke="#FFFFFF" stroke-width="0.25" fill="#FFFFFF" fill-rule="nonzero"></path>
            </g>
        </g>
    </g>
</svg>